# xmcd CD database file
#
# Track frame offsets:
#	150
#	13975
#	29953
#	41801
#	56863
#	70603
#	83858
#	98861
#	112829
#	126642
#	139016
#	153562
#	167247
#	181193
#	196211
#	211808
#
# Disc length: 2980 seconds
#
# Revision: 2
# Processed by: cddbd v1.5.1PL0 Copyright (c) Steve Scherf et al.
# Submitted via: CDex 1.51
#
DISCID=ea0ba210
DTITLE=Bunny Berigan - Jazz Me Blues
DYEAR=1900
DGENRE=Big Band
TTITLE0=Little Gate's Special
TTITLE1=Piano Turner Man
TTITLE2=Can't Help Lovin' Dat Man
TTITLE3=Azure
TTITLE4=There'll Be Some Changes Made
TTITLE5=Peg O'my Heart
TTITLE6=Gangbuster's Holiday
TTITLE7=Walkin' The Dog
TTITLE8=Night Song
TTITLE9=In The Dark
TTITLE10=Jazz Me Blues
TTITLE11=Moonshine Over Kentucky
TTITLE12=Russian Lullaby
TTITLE13=Trees
TTITLE14=Ay - Ay - Ay
TTITLE15=Ain't She Sweet
EXTD=
EXTT0=
EXTT1=
EXTT2=
EXTT3=
EXTT4=
EXTT5=
EXTT6=
EXTT7=
EXTT8=
EXTT9=
EXTT10=
EXTT11=
EXTT12=
EXTT13=
EXTT14=
EXTT15=
PLAYORDER=
